<?xml version="1.0" standalone="no"?>
<!DOCTYPE svg PUBLIC "-//W3C//DTD SVG 20010904//EN"
 "http://www.w3.org/TR/2001/REC-SVG-20010904/DTD/svg10.dtd">
<svg version="1.0" xmlns="http://www.w3.org/2000/svg"
 width="172.000000pt" height="40.000000pt" viewBox="0 0 172.000000 40.000000"
 preserveAspectRatio="xMidYMid meet">

<g transform="translate(0.000000,40.000000) scale(0.100000,-0.100000)"
fill="#000000" stroke="none">
<path d="M0 202 l0 -202 373 1 c204 0 363 4 352 8 -20 8 487 21 813 21 l182 0
0 40 0 40 -760 0 c-500 0 -760 3 -760 10 0 7 260 10 760 10 l760 0 0 130 0
130 -372 0 c-205 0 -592 3 -860 7 l-488 6 0 -201z m170 78 c11 -11 20 -32 19
-47 0 -26 -1 -26 -9 -7 -11 27 -48 54 -75 55 -20 0 -20 0 0 9 31 13 43 12 65
-10z m1026 -59 c-2 -86 -16 -88 -16 -2 0 40 4 70 8 67 5 -3 8 -32 8 -65z
m-886 49 c0 -5 -15 -10 -33 -10 -23 0 -34 -5 -34 -15 0 -10 11 -15 34 -15 18
0 33 -4 33 -10 0 -5 -16 -10 -35 -10 -28 0 -35 -4 -35 -20 0 -17 7 -20 41 -20
24 0 38 -4 34 -10 -3 -6 -24 -10 -46 -10 l-39 0 0 65 0 65 40 0 c22 0 40 -4
40 -10z m600 0 c0 -5 -4 -10 -10 -10 -5 0 -10 5 -10 10 0 6 5 10 10 10 6 0 10
-4 10 -10z m248 -2 c26 -26 -1 -68 -44 -68 -17 0 -24 -6 -24 -19 0 -11 -4 -23
-10 -26 -6 -4 -10 18 -10 59 l0 66 38 0 c21 0 43 -5 50 -12z m-1034 -27 c4 -5
0 -11 -6 -14 -10 -4 -11 -7 0 -18 30 -32 -5 -76 -37 -44 -14 13 -13 15 3 15
18 0 18 1 2 19 -9 10 -14 25 -10 35 7 17 39 22 48 7z m276 -6 c7 -9 10 -19 6
-22 -4 -4 -11 -1 -15 6 -5 7 -17 11 -27 9 -24 -4 -31 -46 -9 -54 19 -8 65 14
65 31 0 23 38 48 64 41 29 -7 45 -49 29 -75 -14 -22 -57 -25 -77 -6 -15 15
-17 15 -32 1 -20 -20 -48 -20 -68 0 -21 20 -20 43 1 66 20 22 46 23 63 3z
m211 -30 c4 -22 4 -44 0 -50 -3 -5 -8 8 -11 30 -4 32 -9 40 -25 40 -16 0 -21
-8 -23 -37 -5 -55 -22 -47 -22 10 l0 48 37 -1 c36 0 38 -2 44 -40z m90 35 c22
-12 26 -59 7 -78 -15 -15 -51 -15 -66 0 -15 15 -15 61 0 76 15 15 33 15 59 2z
m165 -45 c2 -48 2 -48 -5 -10 -5 31 -10 40 -26 40 -16 0 -21 -8 -23 -38 -4
-46 -22 -39 -22 9 0 28 -4 35 -17 32 -13 -2 -19 -14 -21 -41 -4 -48 -22 -38
-22 13 0 44 5 46 85 46 l50 -1 1 -50z m44 5 c0 -21 -4 -42 -10 -45 -6 -4 -10
13 -10 45 0 32 4 49 10 45 6 -3 10 -24 10 -45z m78 38 c7 -7 12 -16 12 -22 0
-6 -5 -5 -12 2 -28 28 -66 3 -52 -33 7 -18 45 -20 62 -3 7 7 12 8 12 2 0 -30
-55 -45 -78 -22 -18 18 -15 65 6 77 23 14 36 13 50 -1z m289 0 c6 -7 13 -29
16 -49 l5 -36 -41 1 c-36 1 -42 4 -45 24 -3 18 2 23 27 28 17 4 31 10 31 15 0
13 -34 11 -48 -3 -7 -7 -12 -8 -12 -2 0 29 49 45 67 22z m111 0 c14 -14 16
-78 2 -78 -5 0 -10 16 -10 36 0 31 -3 35 -22 32 -19 -2 -24 -10 -26 -41 -4
-48 -22 -38 -22 13 0 32 4 39 23 43 39 8 43 7 55 -5z m86 6 c12 -5 16 -19 15
-53 l-2 -46 -6 40 c-5 31 -10 40 -26 40 -15 0 -21 -8 -23 -30 -6 -51 -22 -53
-22 -3 0 36 4 48 18 51 27 7 29 7 46 1z m110 -16 c20 -28 12 -38 -30 -38 -23
0 -33 -4 -28 -11 4 -7 21 -9 41 -6 29 5 33 4 23 -8 -15 -18 -52 -19 -68 -3 -7
7 -12 24 -12 38 0 50 47 68 74 28z m87 6 c11 -13 9 -14 -14 -9 -25 7 -27 5
-27 -28 0 -20 -4 -39 -10 -42 -6 -4 -10 11 -10 39 0 43 3 48 41 55 4 0 12 -6
20 -15z"/>
<path d="M1090 239 c0 -16 5 -20 27 -17 17 2 29 10 31 21 3 13 -3 17 -27 17
-25 0 -31 -4 -31 -21z"/>
<path d="M444 216 c-10 -26 4 -48 28 -44 17 2 23 10 23 28 0 18 -6 26 -23 28
-13 2 -25 -3 -28 -12z"/>
<path d="M645 210 c-9 -27 1 -40 31 -40 20 0 24 5 24 30 0 25 -4 30 -24 30
-16 0 -27 -7 -31 -20z"/>
<path d="M1243 193 c-31 -6 -29 -23 2 -23 16 0 25 6 25 15 0 8 -1 14 -2 14 -2
-1 -13 -4 -25 -6z"/>
<path d="M1525 220 c-4 -6 7 -10 25 -10 18 0 29 4 25 10 -3 6 -15 10 -25 10
-10 0 -22 -4 -25 -10z"/>
</g>
</svg>
